PathFileType	4	(X/Y/Z)	Run_500 02
DataRate	CameraRate	NumFrames	NumMarkers	Units	OrigDataRate	OrigDataStartFrame	OrigNumFrames
100	100	4	42	mm	100	110	128
Frame#	Time	RASI			RPSI			RTH1			RTH2			RTH3			LTH1			LTH2			LTH3			RTB1			RTB2			RTB3			LTB1			LTB2			LTB3			RCAL			RTOE			RMT5			LCAL			LTOE			LMT5			LACR			RACR			CLAV			C7			RUA1			RUA2			RUA3			RLEL			LUA1			LUA2			LUA3			LLEL			LMEL			RFAsuperior			RFAradius			RFAulna			LFAsuperior			LFAradius			LPSI			RMEL			LFAulna			LASI			
		X1	Y1	Z1	X2	Y2	Z2	X3	Y3	Z3	X4	Y4	Z4	X5	Y5	Z5	X6	Y6	Z6	X7	Y7	Z7	X8	Y8	Z8	X9	Y9	Z9	X10	Y10	Z10	X11	Y11	Z11	X12	Y12	Z12	X13	Y13	Z13	X14	Y14	Z14	X15	Y15	Z15	X16	Y16	Z16	X17	Y17	Z17	X18	Y18	Z18	X19	Y19	Z19	X20	Y20	Z20	X21	Y21	Z21	X22	Y22	Z22	X23	Y23	Z23	X24	Y24	Z24	X25	Y25	Z25	X26	Y26	Z26	X27	Y27	Z27	X28	Y28	Z28	X29	Y29	Z29	X30	Y30	Z30	X31	Y31	Z31	X32	Y32	Z32	X33	Y33	Z33	X34	Y34	Z34	X35	Y35	Z35	X36	Y36	Z36	X37	Y37	Z37	X38	Y38	Z38	X39	Y39	Z39	X40	Y40	Z40	X41	Y41	Z41	X42	Y42	Z42	

94	1.48	1017.363163	1055.962478	-229.269028	859.690431	1110.577318	-302.883771	923.37703	930.148389	-194.969044	848.890594	801.4609380000001	-215.619305	856.954661	644.179168	-225.9533	971.009037	929.44228	-544.061389	978.883703	769.313699	-479.638993	1087.685066	673.365556	-477.617069	708.248757	481.136349	-297.313367	660.294677	565.942303	-234.465148	518.845428	515.585284	-305.822408	1223.337971	490.074911	-410.11604	1157.405404	363.517558	-446.380197	1238.274242	274.620864	-383.576249	411.333477	641.516526	-297.292459	344.457166	412.595974	-344.831566	317.16956	456.56565	-252.253307	1149.766897	110.823531	-339.415693	1378.066282	173.683145	-339.741531	1349.789716	92.53161299999999	-411.288942	964.227665	1548.586939	-523.044068	1037.217847	1517.279447	-211.424851	1062.873621	1487.293524	-349.659724	944.513252	1563.620707	-356.090721	937.75222	1431.14358	-128.582324	982.649813	1371.223902	-105.493502	920.213733	1305.949229	-48.167521	891.189524	1249.126216	-13.043908	834.668782	1505.038223	-546.0048389999999	823.230593	1426.663808	-580.323416	727.098587	1401.310436	-575.112401	680.559396	1345.444423	-586.665809	690.0919720000001	1317.642802	-501.599577	987.9215359999999	1204.350862	-40.136378	1112.893342	1185.122554	-172.219579	1115.671662	1141.806901	-117.964157	723.267185	1277.438131	-607.527182	903.064356	1214.542134	-580.386286	849.501136	1111.429213	-416.144403	872.096306	1217.399031	-96.31231	866.3715539999999	1162.87725	-613.897198	1016.352698	1040.591555	-442.960021	
95	1.49	1017.689235	1050.786036	-231.488002	859.179994	1105.104167	-303.387917	921.613228	923.092179	-196.034965	855.59961	793.65455	-215.791013	871.080599	635.993688	-222.25635	970.644582	923.550402	-542.4851619999999	974.642255	762.555955	-478.961483	1082.700133	665.704598	-477.016058	727.1880200000001	479.718635	-291.835109	684.414969	569.535658	-231.936622	540.628876	525.324116	-302.431125	1210.282848	475.698498	-410.410823	1138.575126	352.680292	-448.122338	1215.019181	259.356025	-386.194578	438.352123	658.127471	-300.371949	363.906444	429.026705	-334.523049	339.254107	479.014075	-244.295912	1118.226136	101.417082	-342.266318	1349.361973	149.803286	-343.678438	1315.643893	70.755776	-415.381512	964.712321	1541.098683	-525.4179820000001	1035.381397	1512.346014	-211.73368	1062.897133	1482.565506	-349.958521	943.718566	1558.130133	-358.26766	932.8539929999999	1428.111505	-130.431685	976.441109	1367.658702	-105.441956	912.190611	1303.794672	-48.774536	881.199147	1248.929303	-13.262996	835.026759	1494.307759	-550.1747360000001	827.199647	1413.927663	-583.310621	732.09611	1384.760759	-579.2551110000001	687.418953	1328.200419	-590.827886	696.869026	1301.407712	-505.475448	975.730982	1197.360688	-35.978991	1103.957055	1164.047996	-162.334489	1100.609138	1122.256209	-106.601897	731.386121	1260.561821	-610.9802079999999	912.109857	1201.048371	-581.715946	850.227514	1105.747459	-416.380524	863.574263	1216.350404	-96.767217	876.736644	1148.75288	-615.696108	1017.048865	1034.942868	-443.288825	
96	1.5	1017.9474	1044.852595	-233.880618	858.5506	1098.787983	-304.019499	921.115968	915.0425770000001	-195.272286	863.260444	784.765167	-214.271689	886.744533	627.476433	-217.663331	971.159495	916.700361	-539.772305	969.939838	754.431257	-479.378977	1076.784837	656.253678	-478.287362	748.284804	477.265845	-286.168658	710.0092560000001	570.654119	-228.913047	564.65831	531.961641	-299.097595	1195.945735	459.536174	-410.913	1119.354369	340.001414	-450.601624	1189.631573	242.667908	-388.531211	466.78286	670.125191	-302.857573	386.710192	441.376888	-325.039058	364.842865	496.248714	-236.906974	1083.351101	95.467983	-344.973334	1317.01244	123.015271	-346.934163	1276.980059	49.497753	-420.113638	965.871965	1532.600896	-527.914248	1032.502118	1506.322172	-212.891309	1062.750567	1477.067406	-350.009074	942.627979	1551.623451	-360.763903	927.34279	1424.675084	-132.647361	969.7427	1363.714148	-105.678209	903.836428	1301.102117	-49.906291	870.849056	1248.319012	-13.965017	836.572993	1481.940833	-555.146401	832.546594	1399.940688	-586.968525	738.476124	1367.081055	-584.138063	695.693703	1309.774355	-596.062528	704.870053	1284.263655	-510.288428	962.702913	1190.151647	-31.827272	1093.102535	1142.363354	-151.282618	1083.473024	1102.653569	-94.66842200000001	740.888491	1242.092999	-614.9590020000001	922.134898	1185.73648	-582.662768	851.600005	1098.922467	-416.874989	854.571306	1214.749258	-97.708833	888.322973	1132.697819	-617.05738	1018.391193	1028.150939	-443.875988	
97	1.51	1018.149252	1038.069518	-235.904672	857.820029	1091.710163	-304.721249	921.6526249999999	905.976804	-192.827606	871.9251829999999	774.86103	-211.142611	903.990358	618.668766	-212.385706	972.405244	909.3194109999999	-536.547698	964.887413	745.492333	-481.067978	1069.710098	645.232559	-481.026847	771.5034439999999	473.920524	-280.714365	736.515958	569.256302	-225.089305	590.497539	535.6009309999999	-295.940786	1181.370626	443.332689	-410.964364	1100.030564	327.452868	-451.5982	1162.15722	226.918864	-387.542343	496.105064	677.701328	-304.268365	411.971111	449.64142	-316.9763	393.290068	507.903652	-230.163918	1044.821402	93.618534	-344.282301	1280.380774	98.54885400000001	-346.800489	1234.091148	34.963807	-423.733503	967.7788	1523.299953	-530.465601	1028.727661	1499.740654	-214.31498	1062.247641	1470.660227	-349.951845	941.238301	1544.166532	-363.612063	921.203379	1420.776109	-135.357836	962.594604	1359.53718	-106.164575	895.2605589999999	1297.999949	-51.572454	860.150896	1247.242054	-15.132668	839.479441	1468.15112	-560.983611	839.3591730000001	1384.982945	-591.235854	746.498482	1348.406081	-589.650139	705.475774	1290.472516	-602.226992	714.00559	1266.479678	-515.960903	948.890182	1182.835289	-27.577635	1080.409079	1120.913415	-139.348546	1064.796088	1084.008954	-82.607834	751.817807	1222.433104	-619.279536	933.279808	1169.049151	-583.342575	853.1299330000001	1091.602628	-417.810193	844.270766	1212.515689	-98.42979699999999	901.091352	1115.143782	-617.805922	1019.89097	1020.864135	-444.903862	
